{"title":"Bangbus - Rebecca MP4 {2bUnique}.","uid":9923463,"size":1203785365,"categoryP":"porn","categoryS":"movies","magnet":"?xt=urn:btih:51be794a85b1b18867af7da973881e5861e920d3&amp;dn=+Bangbus+-+Rebecca+MP4+%7B2bUnique%7D.&amp;tr=udp%3A%2F%2Ftracker.openbittorrent.com%3A80&amp;tr=udp%3A%2F%2Fopen.demonii.com%3A1337&amp;tr=udp%3A%2F%2Ftracker.coppersurfer.tk%3A6969&amp;tr=udp%3A%2F%2Fexodus.desync.com%3A6969","seeders":0,"leechers":1,"uploader":"2bUnique","files":1,"time":1397029124,"description":"\nDescription\n &lt;a href=&quot;\nhttp://www.bangbus.com/t3/pps=ls/porn-videos/rebecca_bbrebecca.html&quot; rel=&quot;nofollow&quot; target=&quot;_NEW&quot;&gt;\nhttp://www.bangbus.com/t3/pps=ls/porn-videos/rebecca_bbrebecca.html&lt;/a&gt;\n\nsummary: \nI never thought that Rebecca would fall for our lure of money and falseties but she did and everyone knows never to look a gift bitch in the mouth unless theres a cock in it so basiclly we got her in but for more than we would pay 50$ instead of 20$ and it seemed that it would be a repeated theme for the rest of the day it cost ugly and I 200$ dollares to get this girl naked and spread and another 100$ to get her to do anything with Ramone but after she got the cock in the mouth she knew that she would never have an opprotunity like that again so that was probly the driving force to encourage her to go all the way. And needles to say she got stuffed with that huge dick and that thing must have turned her world upside down she was begging and moaning for more but after we decided she had enough we for the first time decided to take the poor girl home so thats what probly made her feel so comfortable that she had forgoten her purse but just when she was walking away she remembered it but ugly was already pealing out of her driveway so in the end she got creamed and we got our money back but dont feel bad guys we threw the purse out the window a couple of miles up the road..........\n\nProducer :BangBros\nDate of release :Wed, November 14, 2001\n\nGeneral\n\nFormat : MPEG-4\nFormat profile : Base Media\nCodec ID : isom\nFile size : 1.12 GiB\nDuration : 44mn 28s\nOverall bit rate mode : Variable\nOverall bit rate : 3 609 Kbps\nGenre : m\nEncoded date : UTC 2014-04-06 22:16:15\nTagged date : UTC 2014-04-06 22:16:15\nWriting application : Lavf51.12.1\n\nVideo\nID : 1\nFormat : AVC\nFormat/Info : Advanced Video Codec\nFormat profile : &lt;a class=&quot;__cf_email__&quot; href=&quot;/cdn-cgi/l/email-protection&quot; data-cfemail=&quot;d193b0a2b4bdb8bfb4919de2ffe0&quot;&gt;[email&amp;#160;protected]&lt;/a&gt;&lt;script cf-hash='f9e31' type=&quot;text/javascript&quot;&gt;\n/* &lt;![CDATA[ */!function(){try{var t=&quot;currentScript&quot;in document?document.currentScript:function(){for(var t=document.getElementsByTagName(&quot;script&quot;),e=t.length;e--;)if(t[e].getAttribute(&quot;cf-hash&quot;))return t[e]}();if(t&amp;&amp;t.previousSibling){var e,r,n,i,c=t.previousSibling,a=c.getAttribute(&quot;data-cfemail&quot;);if(a){for(e=&quot;&quot;,r=parseInt(a.substr(0,2),16),n=2;a.length-n;n+=2)i=parseInt(a.substr(n,2),16)^r,e+=String.fromCharCode(i);e=document.createTextNode(e),c.parentNode.replaceChild(e,c)}}}catch(u){}}();/* ]]&gt; */&lt;/script&gt;\nFormat settings, CABAC : No\nFormat settings, ReFrames : 2 frames\nFormat settings, GOP : M=1, N=12\nCodec ID : avc1\nCodec ID/Info : Advanced Video Coding\nDuration : 44mn 27s\nBit rate : 3 480 Kbps\nWidth : 1 280 pixels\nHeight : 720 pixels\nDisplay aspect ratio : 16:9\nFrame rate mode : Constant\nFrame rate : 29.970 fps\nStandard : NTSC\nColor space : YUV\nChroma subsampling : 4:2:0\nBit depth : 8 bits\nScan type : Progressive\nBits/(Pixel*Frame) : 0.126\nStream size : 1.08 GiB (96%)\nEncoded date : UTC 2014-04-06 22:16:15\nTagged date : UTC 2014-04-06 22:16:15\nColor primaries : BT.601 NTSC\nTransfer characteristics : BT.601\nMatrix coefficients : BT.601\n\nAudio\nID : 2\nFormat : AAC\nFormat/Info : Advanced Audio Codec\nFormat profile : LC\nCodec ID : 40\nDuration : 44mn 28s\nBit rate mode : Variable\nBit rate : 125 Kbps\nChannel(s) : 2 channels\nChannel positions : Front: L R\nSampling rate : 48.0 KHz\nCompression mode : Lossy\nStream size : 39.6 MiB (3%)\nEncoded date : UTC 2014-04-06 22:16:15\nTagged date : UTC 2014-04-06 22:16:15","torrent":{"xt":"urn:btih:51be794a85b1b18867af7da973881e5861e920d3","amp;dn":"+Bangbus+-+Rebecca+MP4+%7B2bUnique%7D.","amp;tr":["udp%3A%2F%2Ftracker.openbittorrent.com%3A80","udp%3A%2F%2Fopen.demonii.com%3A1337","udp%3A%2F%2Ftracker.coppersurfer.tk%3A6969","udp%3A%2F%2Fexodus.desync.com%3A6969"],"infoHash":"51be794a85b1b18867af7da973881e5861e920d3","infoHashBuffer":{"type":"Buffer","data":[81,190,121,74,133,177,177,136,103,175,125,169,115,136,30,88,97,233,32,211]},"announce":[],"urlList":[]}}